Coordinates
version=1
nRows=8
nColumns=63
inDegrees=yes

Units are S.I. units (second, meters, Newtons, ...)
If the header above contains a line with 'inDegrees', this indicates whether rotational values are in degrees (yes) or radians (no).

endheader
time	pelvis_tilt	pelvis_list	pelvis_rotation	pelvis_tx	pelvis_ty	pelvis_tz	hip_flexion_r	hip_adduction_r	hip_rotation_r	knee_angle_r	knee_angle_r_beta	ankle_angle_r	subtalar_angle_r	mtp_angle_r	hip_flexion_l	hip_adduction_l	hip_rotation_l	knee_angle_l	knee_angle_l_beta	ankle_angle_l	subtalar_angle_l	mtp_angle_l	L5_S1_Flex_Ext	L5_S1_Lat_Bending	L5_S1_axial_rotation	L4_L5_Flex_Ext	L4_L5_Lat_Bending	L4_L5_axial_rotation	L3_L4_Flex_Ext	L3_L4_Lat_Bending	L3_L4_axial_rotation	L2_L3_Flex_Ext	L2_L3_Lat_Bending	L2_L3_axial_rotation	L1_L2_Flex_Ext	L1_L2_Lat_Bending	L1_L2_axial_rotation	L1_T12_Flex_Ext	L1_T12_Lat_Bending	L1_T12_axial_rotation	Abs_r3	Abs_r2	Abs_r1	Abs_t1	Abs_t2	neck_flexion	neck_bending	neck_rotation	arm_flex_r	arm_add_r	arm_rot_r	elbow_flex_r	pro_sup_r	wrist_flex_r	wrist_dev_r	arm_flex_l	arm_add_l	arm_rot_l	elbow_flex_l	pro_sup_l	wrist_flex_l	wrist_dev_l
4.421053	6.559084	-8.989094	90.006191	0.150154	0.962990	0.550440	6.966515	2.692754	-6.127657	5.834757	0.101836	27.964610	7.947031	0.000000	5.675209	-9.949634	-5.842816	11.677250	0.203806	34.410894	-0.898271	0.000000	-0.066103	0.410634	1.024757	-0.122760	0.546143	1.088804	-0.108601	0.998415	1.088804	-0.075549	0.998415	0.896662	-0.061384	0.837365	0.832615	-0.037771	0.636072	0.768568	-0.472169	4.645173	5.699391	0.000000	0.000000	0.316192	0.724127	-3.295500	-13.854932	-22.204019	-12.829132	56.679709	78.628071	-10.643962	11.487417	18.450490	-41.181920	-10.690277	138.018881	89.210507	1.248677	20.453551
4.438596	6.646378	-8.884817	90.372187	0.150179	0.963154	0.550880	6.848335	2.846595	-5.445162	5.637002	0.098384	28.067445	7.186509	0.000000	5.806108	-10.055646	-5.312217	11.821862	0.206330	34.437472	-1.022995	0.000000	-0.069586	0.429819	0.839154	-0.129228	0.571659	0.891601	-0.114323	1.045061	0.891601	-0.079530	1.045061	0.734260	-0.064617	0.876486	0.681812	-0.039761	0.665789	0.629365	-0.497045	4.862196	4.667122	0.000000	0.000000	0.531314	0.334042	-2.366570	-13.090581	-22.011651	-11.864077	55.980984	79.158565	-10.263002	11.824824	17.520541	-40.713760	-11.291051	138.051541	89.279961	0.569366	19.813268
4.456140	6.714970	-8.787432	90.757190	0.150238	0.963365	0.551135	6.729188	2.970598	-4.952550	5.458091	0.095262	28.188061	6.636418	0.000000	5.922104	-10.148254	-4.846114	11.954367	0.208643	34.469287	-1.042109	0.000000	-0.067843	0.449125	0.627784	-0.125991	0.597337	0.667020	-0.111459	1.092003	0.667020	-0.077538	1.092003	0.549311	-0.062999	0.915856	0.510074	-0.038766	0.695695	0.470838	-0.484597	5.080595	3.491545	0.000000	0.000000	0.945371	-0.030610	-1.223498	-12.246347	-21.779862	-10.745436	55.159077	79.804658	-9.816842	12.270890	16.186494	-40.305362	-12.368109	138.261955	89.354828	-0.160293	18.693185
4.473684	6.772569	-8.695976	91.157110	0.150304	0.963636	0.551218	6.617627	3.069865	-4.636437	5.327039	0.092974	28.299727	6.225341	0.000000	6.006688	-10.221667	-4.319607	12.035623	0.210061	34.485433	-1.113626	0.000000	-0.061579	0.469435	0.401271	-0.114359	0.624348	0.426351	-0.101168	1.141384	0.426351	-0.070379	1.141384	0.351112	-0.057182	0.957271	0.326033	-0.035186	0.727154	0.300953	-0.439853	5.310340	2.231750	0.000000	0.000000	1.512440	-0.370596	0.051091	-11.376109	-21.507029	-9.610404	54.238901	80.534232	-9.301908	12.758931	14.544499	-39.965793	-13.812924	138.615505	89.463581	-0.971895	17.051222
4.491228	6.817828	-8.606483	91.577342	0.150382	0.963970	0.551101	6.501548	3.139343	-4.563974	5.243094	0.091509	28.397741	5.999664	0.000000	6.060796	-10.289265	-3.888652	12.074959	0.210748	34.544953	-1.005361	0.000000	-0.051757	0.490084	0.161896	-0.096117	0.651812	0.172014	-0.085031	1.191590	0.172014	-0.059153	1.191590	0.141659	-0.048061	0.999379	0.131540	-0.029574	0.759140	0.121422	-0.369692	5.543929	0.900415	0.000000	0.000000	2.176875	-0.612742	1.473758	-10.495622	-21.219850	-8.407680	53.214364	81.124235	-8.770320	13.156604	12.668269	-39.703517	-15.615597	139.106263	89.625276	-1.741657	15.064371
4.508772	6.847892	-8.513516	92.004135	0.150480	0.964387	0.550802	6.377556	3.177926	-4.713487	5.211292	0.090954	28.465244	5.897537	0.000000	6.073908	-10.346663	-3.562937	12.059326	0.210475	34.647457	-0.708541	0.000000	-0.040319	0.510686	-0.081834	-0.074877	0.679212	-0.086949	-0.066241	1.241681	-0.086949	-0.046081	1.241681	-0.071605	-0.037441	1.041390	-0.066490	-0.023039	0.791052	-0.061376	-0.287998	5.776978	-0.455138	0.000000	0.000000	2.900859	-0.729236	3.022493	-9.624575	-20.927476	-7.170461	52.084574	81.517393	-8.236770	13.390089	10.666888	-39.516224	-17.679480	139.689884	89.776468	-2.408204	12.813846
4.526316	6.861337	-8.418720	92.420360	0.150620	0.964869	0.550326	6.247111	3.186725	-5.070730	5.230775	0.091294	28.499041	5.888251	0.000000	6.040710	-10.391016	-3.345557	11.978023	0.209056	34.793852	-0.237147	0.000000	-0.027536	0.530872	-0.321638	-0.051138	0.706059	-0.341741	-0.045239	1.290761	-0.341741	-0.031471	1.290761	-0.281434	-0.025570	1.082553	-0.261331	-0.015734	0.822320	-0.241229	-0.196689	6.005326	-1.788856	0.000000	0.000000	3.650368	-0.678482	4.698132	-8.793287	-20.639759	-5.933815	50.885046	81.718875	-7.728068	13.454417	8.639842	-39.409855	-19.867534	140.328766	89.811780	-3.017294	10.402983
4.543860	6.851511	-8.324677	92.800651	0.150841	0.965406	0.549697	6.120151	3.158993	-5.650285	5.312602	0.092722	28.510964	6.019222	0.000000	5.955250	-10.418742	-3.283610	11.824063	0.206369	34.977046	0.446105	0.000000	-0.014113	0.550371	-0.557980	-0.026210	0.731994	-0.592854	-0.023187	1.338173	-0.592854	-0.016130	1.338173	-0.488232	-0.013106	1.122317	-0.453359	-0.008064	0.852525	-0.418485	-0.100809	6.225911	-3.103317	0.000000	0.000000	4.398634	-0.476040	6.553163	-7.982269	-20.360600	-4.716150	49.651237	81.853757	-7.242613	13.427333	6.594816	-39.384066	-22.187159	141.009383	89.605716	-3.512006	7.939844
